<?xml version="1.0" encoding="utf-8"?>
<!-- Generator: Adobe Illustrator 24.0.3, SVG Export Plug-In . SVG Version: 6.00 Build 0)  -->
<svg version="1.1" id="图层_1" xmlns="http://www.w3.org/2000/svg" xmlns:xlink="http://www.w3.org/1999/xlink" x="0px" y="0px"
	 viewBox="0 0 299.8 86.2" style="enable-background:new 0 0 299.8 86.2;" xml:space="preserve">
<style type="text/css">
	.st0{fill:#E95631;}
	.st1{fill:#B93D23;}
	.st2{fill:#218FC8;}
	.st3{fill:#074269;}
</style>
<path class="st0" d="M45.6-0.3L80,15.5l-6.3,3.2c0,0,13.1,32.5,10.8,44.4S70.4,85.7,52.5,85.3c0,0,16.2-7.5,15.4-19.1
	c-0.8-11.6-6.7-27.5-13.1-40.2l-9.2,4.8L45.6-0.3z"/>
<path class="st1" d="M22.9,45.1c0,0,23.9,33.2,43.3,28.5c0,0-5.3,8.6-13.6,11.7c0,0-23.8-4.2-35.6-22C16.9,63.3,20.6,46.7,22.9,45.1
	z"/>
<path class="st2" d="M41,0.4L6.4,15.7l6.3,3.3c0,0-13.5,32.3-11.4,44.3S15,86.1,32.9,85.9c0,0-16.1-7.7-15.1-19.3s7-27.4,13.6-40
	l9.1,4.9L41,0.4z"/>
<path class="st3" d="M63.1,46.1c0,0-24.4,32.9-43.7,27.9c0,0,5.2,8.7,13.5,11.9c0,0,23.9-3.9,35.9-21.5
	C68.7,64.4,65.3,47.7,63.1,46.1z"/>
<g>
	<path class="st3" d="M147.2,43.6c-7.3-1.1-13-2.5-16.9-4.1c-4.5,1.8-10.2,3.3-17.1,4.5c0-0.1-0.1-0.3-0.2-0.5
		c-0.6-1.6-1.2-2.7-1.7-3.4c6.4-0.8,11.1-1.8,14.3-2.8c-3.2-1.8-6.2-4.5-8.8-8.1h-3v-3.6h31.3v3.6c-2.8,3.3-6.2,6.1-10,8.1
		c3.4,1,8.1,1.8,13.9,2.2c-0.2,0.4-0.5,1.1-0.9,2C147.7,42.5,147.4,43.2,147.2,43.6z M115.1,50.4v-3.8h13v-4.2h4.4v4.2h13v3.8h-13
		V56h16.3v3.4h-37V56h16.3v-5.6H115.1z M139.8,29.2h-18c2.5,2.9,5.3,5.1,8.5,6.4C133.7,34.1,136.9,31.9,139.8,29.2z"/>
	<path class="st3" d="M197,60.7c-7.3-2.3-12.7-4.9-16.1-7.8c-3.8,2.9-9.2,5.7-16.3,8.3c-0.1-0.2-0.3-0.6-0.6-1.1
		c-0.7-1.1-1.4-2.2-2-3.1c6.5-1.8,11.7-4.2,15.7-7.2c-4.6-5-8.4-12.2-11.3-21.6l4.2-1.6c2.4,8.7,5.8,15.4,10.3,20.2
		c4.8-5.2,8.1-12.1,9.9-20.5l4.4,1.3c-2.3,9.6-5.9,17-10.8,22.2c3.6,2.8,8.7,5.1,15.4,6.9c-0.4,0.4-1,1.4-1.9,2.8
		C197.3,60.1,197.1,60.5,197,60.7z M180.5,34.2c-1.5-3.7-2.8-6.7-4.1-9.2l3.8-1.4c1,1.8,2.5,4.8,4.4,9.1L180.5,34.2z"/>
	<path class="st3" d="M212.9,34.5v-3.8h4.4v-6.9h3.8v6.9h4.2v3.8H221v6.9l3.9-0.8c-0.1,1.6-0.1,2.9,0,3.9l-3.9,0.9v10.7
		c0.1,3-1.2,4.5-3.9,4.5c-0.9,0.1-2.2,0.2-3.8,0.2c-0.1-0.8-0.3-1.9-0.5-3.3c-0.1-0.4-0.2-0.7-0.2-0.8c0.3,0,1.2,0,2.7,0
		c1.4,0.1,2-0.5,1.9-1.7v-8.5l-4.7,1.3l-0.3-4.4c0.4-0.1,1-0.3,1.9-0.5c1.4-0.3,2.4-0.5,3.1-0.6v-7.8H212.9z M248.3,60.9
		c-4.5-1.3-8.3-2.8-11.4-4.5c-3,1.8-6.9,3.4-11.6,4.9c-0.2-0.4-0.5-1-0.9-1.9c-0.5-0.8-0.9-1.5-1.1-1.9c4.2-0.8,7.7-2.1,10.5-3.8
		c-2.6-2.6-4.6-5.5-6-8.6l1.7-0.9h-2.7v-3.8h20.5v3.9c-1.7,3.6-4,6.7-7.1,9.4c2.8,1.7,6.2,2.8,10.2,3.4c-0.4,0.6-1,1.7-1.9,3.1
		C248.5,60.6,248.4,60.8,248.3,60.9z M227.3,39.4c-0.9-1.3-1.8-2.4-2.5-3.3c3.6-1.6,5.2-4.2,4.9-7.8v-3H245v6.6
		c-0.1,1.6,0.6,2.3,2,2.2h3.3c-0.2,0.7-0.4,1.8-0.6,3.1c0,0.2,0,0.4,0,0.5h-4.2c-3.1,0.1-4.6-1.3-4.5-4.2v-4.5h-7.4V30
		C233.8,34,231.7,37.1,227.3,39.4z M242.8,44.1h-11.3c1.5,2.9,3.3,5.3,5.5,7.2C239.6,49.3,241.5,46.9,242.8,44.1z"/>
	<path class="st3" d="M265.4,42.1l-2.5-3.1c3.1-2.1,6.1-4.2,8.9-6.4c0,0.1,0.1,0.2,0.3,0.3c0.3,0.4,1,1.3,2,2.7
		C270.1,38.4,267.2,40.6,265.4,42.1z M265.3,61c-0.1-0.1-0.2-0.3-0.3-0.6c-0.6-1.5-1.1-2.5-1.4-3.1c10.2-0.7,15.6-2.9,16-6.6
		c0.2-0.8,0.3-1.9,0.3-3.3h4.2c0,1.4-0.2,2.6-0.5,3.8c0,0.3-0.1,0.7-0.3,1.1c2.2,0.6,5.4,1.6,9.6,3c3.1,0.9,5.5,1.7,7.1,2.2L298,61
		c-6.8-2.6-12.3-4.5-16.5-5.8C279.4,57.8,274,59.8,265.3,61z M270.1,31.6c-0.5-0.4-1.3-1.1-2.4-2c-1.6-1.4-2.7-2.3-3.4-2.8L267,24
		c0.5,0.4,1.3,1,2.2,1.7c1.9,1.3,3.1,2.2,3.8,2.8L270.1,31.6z M268.1,53.8V42.2h27.7v11.4h-4.2v-8h-19.4v8.2H268.1z M275.6,41.8
		c-0.3-0.5-1-1.6-2-3.3c6.3-1.4,10-3.7,11.1-6.9c0-0.1,0.1-0.2,0.2-0.3c0.1-0.4,0.2-0.9,0.2-1.4h-4.5c-0.9,1.6-2.2,3.2-3.8,4.9
		c-0.9-0.8-2-1.6-3.1-2.3c2.7-2.6,4.7-5.6,6-8.9l3.9,0.5c-0.3,0.9-0.7,1.8-1.1,2.7h17.1v3.3l-2.2,4.5c-0.5-0.2-1.3-0.5-2.2-0.8
		c-0.7-0.2-1.3-0.4-1.7-0.5l1.9-3.3h-6.1c0,0.1-0.1,0.3-0.2,0.5c0,0.3-0.1,0.5-0.2,0.6c1.4,3.8,5.4,6.2,12.1,7.4l-1.9,3.6
		c-6.3-1.5-10.2-3.8-11.8-6.9C285.7,37.8,281.8,40.1,275.6,41.8z"/>
</g>
<g>
	<path class="st3" d="M113,80.3l1.1-1c1.1,0.9,2.5,1.4,4.1,1.4c1.9,0,3.1-0.8,3.1-1.9c0-1.2-1.1-1.5-2.5-2l-2.1-0.7
		c-1.4-0.5-3-1.3-3-2.9c0-1.7,2-3,4.6-3c1.7,0,3.3,0.6,4.3,1.4l-1,0.9c-0.9-0.7-2-1.1-3.3-1.1c-1.6,0-2.7,0.6-2.7,1.7
		c0,1.1,1.3,1.5,2.4,1.9l2.1,0.7c1.7,0.6,3,1.4,3,3.1c0,1.8-1.9,3.3-5,3.3C116,82,114.2,81.3,113,80.3z"/>
	<path class="st3" d="M128.7,70.3h1.9v4.8h6.8v-4.8h1.9v11.4h-1.9v-5.4h-6.8v5.4h-1.9V70.3z"/>
	<path class="st3" d="M145.9,70.3h8.5v1.2h-6.6v3.6h5.6v1.2h-5.6v4.2h6.8v1.2h-8.7V70.3z"/>
	<path class="st3" d="M160.4,70.3h1.9l5.3,7.2l1.6,2.4h0.1c-0.1-1.2-0.2-2.4-0.2-3.6v-5.9h1.8v11.4h-1.9l-5.3-7.2l-1.6-2.4H162
		c0.1,1.2,0.2,2.4,0.2,3.6v6h-1.8V70.3z"/>
	<path class="st3" d="M176.7,76c0-3.7,2.8-5.9,6.7-5.9c2,0,3.4,0.7,4.2,1.4l-1,0.9c-0.7-0.6-1.7-1.1-3.2-1.1c-3,0-4.9,1.8-4.9,4.6
		c0,2.9,1.7,4.7,4.9,4.7c1.1,0,2.1-0.2,2.6-0.7v-3h-3.1v-1.2h4.8v4.8c-0.9,0.8-2.6,1.3-4.5,1.3C179.5,82,176.7,79.8,176.7,76z"/>
	<path class="st3" d="M196.5,77.3l-4.4-7h2l1.9,3.2c0.5,0.8,0.9,1.6,1.4,2.5h0.1c0.5-0.9,1-1.7,1.5-2.5l1.9-3.2h1.9l-4.4,7v4.4h-1.9
		V77.3z"/>
	<path class="st3" d="M207.2,70.3h1.9v11.4h-1.9V70.3z"/>
	<path class="st3" d="M222.9,70.3h1.9v11.4h-1.9V70.3z"/>
	<path class="st3" d="M231.5,70.3h1.9l5.3,7.2l1.6,2.4h0.1c-0.1-1.2-0.2-2.4-0.2-3.6v-5.9h1.8v11.4H240l-5.3-7.2l-1.6-2.4H233
		c0.1,1.2,0.2,2.4,0.2,3.6v6h-1.8V70.3z"/>
	<path class="st3" d="M246.6,70.3h2l2.4,6.2c0.5,1.3,0.9,2.4,1.4,3.8h0.1c0.5-1.3,0.9-2.4,1.4-3.8l2.4-6.2h1.9l-4.7,11.4h-2.2
		L246.6,70.3z"/>
	<path class="st3" d="M262.8,70.3h8.5v1.2h-6.6v3.6h5.6v1.2h-5.6v4.2h6.8v1.2h-8.7V70.3z"/>
	<path class="st3" d="M276.2,80.3l1.1-1c1.1,0.9,2.5,1.4,4.1,1.4c1.9,0,3.1-0.8,3.1-1.9c0-1.2-1.1-1.5-2.5-2l-2.1-0.7
		c-1.4-0.5-3-1.3-3-2.9c0-1.7,2-3,4.6-3c1.7,0,3.3,0.6,4.3,1.4l-1,0.9c-0.9-0.7-2-1.1-3.3-1.1c-1.6,0-2.7,0.6-2.7,1.7
		c0,1.1,1.3,1.5,2.4,1.9l2.1,0.7c1.7,0.6,3,1.4,3,3.1c0,1.8-1.9,3.3-5,3.3C279.3,82,277.5,81.3,276.2,80.3z"/>
	<path class="st3" d="M294.5,71.5H290v-1.2h10.8v1.2h-4.4v10.2h-1.9V71.5z"/>
</g>
</svg>
